PathFileType	4	(X/Y/Z)	Formatted/subject19/trials/walk2/markers.trc
DataRate	CameraRate	NumFrames	NumMarkers	Units	OrigDataRate	OrigDataStartFrame	OrigNumFrames
200.00000000000426	200.00000000000426	4	64	m	200.00000000000426	53	213
Frame#	Time	CLAV			C7			RACR			RASH			RPSH			RLEL			RMEL			RUA1			RUA2			RUA3			RFAsuperior			RFAradius			RFAulna			RASI			RPSI			RCAL			RTOE			RMT5			RTH1			RTH2			RTH3			RTB1			RTB2			RTB3			RLFC			RMFC			RLMAL			RMMAL			RHJC			RKJC			REJC			RAJC			RSJC			LACR			LASH			LPSH			LLEL			LMEL			LUA1			LUA2			LUA3			LFAsuperior			LFAradius			LFAulna			LASI			LPSI			LCAL			LTOE			LMT5			LTH1			LTH2			LTH3			LTB1			LTB2			LTB3			LLFC			LMFC			LLMAL			LMMAL			LHJC			LKJC			LEJC			LAJC			LSJC			
		X1	Y1	Z1	X2	Y2	Z2	X3	Y3	Z3	X4	Y4	Z4	X5	Y5	Z5	X6	Y6	Z6	X7	Y7	Z7	X8	Y8	Z8	X9	Y9	Z9	X10	Y10	Z10	X11	Y11	Z11	X12	Y12	Z12	X13	Y13	Z13	X14	Y14	Z14	X15	Y15	Z15	X16	Y16	Z16	X17	Y17	Z17	X18	Y18	Z18	X19	Y19	Z19	X20	Y20	Z20	X21	Y21	Z21	X22	Y22	Z22	X23	Y23	Z23	X24	Y24	Z24	X25	Y25	Z25	X26	Y26	Z26	X27	Y27	Z27	X28	Y28	Z28	X29	Y29	Z29	X30	Y30	Z30	X31	Y31	Z31	X32	Y32	Z32	X33	Y33	Z33	X34	Y34	Z34	X35	Y35	Z35	X36	Y36	Z36	X37	Y37	Z37	X38	Y38	Z38	X39	Y39	Z39	X40	Y40	Z40	X41	Y41	Z41	X42	Y42	Z42	X43	Y43	Z43	X44	Y44	Z44	X45	Y45	Z45	X46	Y46	Z46	X47	Y47	Z47	X48	Y48	Z48	X49	Y49	Z49	X50	Y50	Z50	X51	Y51	Z51	X52	Y52	Z52	X53	Y53	Z53	X54	Y54	Z54	X55	Y55	Z55	X56	Y56	Z56	X57	Y57	Z57	X58	Y58	Z58	X59	Y59	Z59	X60	Y60	Z60	X61	Y61	Z61	X62	Y62	Z62	X63	Y63	Z63	X64	Y64	Z64	

54	2.985	1.318111560917403	1.418275314475331	-0.4539961279728621	1.202407596626938	1.496035385880782	-0.4784539021620545	1.245590555672491	1.438734025730652	-0.2893867820950656	1.307432239493859	1.399745218032901	-0.273355467294383	1.212380739813569	1.41468857032094	-0.2711608905872867	1.188521250834816	1.123888264363576	-0.2449578482831099	1.16923691069248	1.125525678781245	-0.306037699784534	1.238577742824891	1.342792686132918	-0.2512484663287789	1.265385307455078	1.256374647428354	-0.273496905978953	1.186811198152208	1.232905380431113	-0.2555597608287417	1.256108989725515	1.068739681411397	-0.2920140486786107	1.338678482420758	0.8922050274800902	-0.2614564512806981	1.270590758615251	0.8763596117512297	-0.2632540993155195	1.309252661352334	0.9919045465531767	-0.3672313661594426	1.139769733694559	1.013739131049095	-0.4416019488713042	1.173291166562481	0.05223188890929246	-0.4356687484541246	1.382724930624821	0.04914819573776204	-0.462639564401726	1.374084007718403	0.01501989440819657	-0.3577276638823197	1.263502439324837	0.8246201824405882	-0.3092145363043589	1.351605101962863	0.6930406768554683	-0.3420340853515794	1.303435663213403	0.5929837390592712	-0.3533226951141665	1.360675174803418	0.3614689287907747	-0.4174861173374785	1.305127768582467	0.3117052980060396	-0.3538835334371287	1.31490993901572	0.1870448404382143	-0.4187196767178246	1.326485211820972	0.4989641223539608	-0.3628407996541693	1.318588733425023	0.5009236138569629	-0.4758084008769623	1.260432975820135	0.0597380912820723	-0.3718379168432648	1.257011866322197	0.06228948244809668	-0.473154462943163	1.241187477762643	0.8835406811354283	-0.4069845203726793	1.326043328852376	0.4983870272133916	-0.4219234088018931	1.184149474199145	1.118462731739219	-0.2761900810482838	1.243812098726001	0.05059691224169188	-0.4290229017172374	1.262905364468627	1.406745431412233	-0.2723274178359437	1.234665071371534	1.468248760359486	-0.6600446229634251	1.302062747813579	1.423714287009757	-0.6691295022872936	1.199407128158865	1.43985310748084	-0.6667593594436295	1.182986667243095	1.153568006575105	-0.7185113243418311	1.158446424067439	1.156871283464835	-0.6583624175610954	1.218755268967413	1.374500128035837	-0.707540478161957	1.165458521651991	1.310322085016759	-0.6822592077332493	1.235323206686662	1.261115271060991	-0.7087227069693849	1.227246715971092	1.093526256757512	-0.6677812213345579	1.297389870128975	0.903271734077607	-0.6955908754463206	1.233164067738919	0.8935169492531065	-0.7189872200583117	1.309102014719759	0.9837545524999211	-0.6024748261851821	1.139237302614651	1.012584313136257	-0.5390928361520805	0.9785463888855863	0.2934374978545132	-0.5827943226228982	1.089215902454527	0.1191127888054762	-0.5519821644739122	1.057210465025119	0.1078157487349586	-0.6594764509442601	1.26231440786115	0.8209215557547949	-0.6696742963904523	1.362142866729673	0.7450095498586671	-0.6606982355437482	1.324207309622226	0.6051694223581274	-0.6544138105273472	1.307993500266566	0.3832865268170336	-0.6087602958377832	1.206253267850321	0.3578143778660993	-0.6563626873170876	1.145073219540722	0.2781886996031075	-0.5935451311241979	1.37590514000167	0.5128428057787495	-0.6432945797829878	1.37581754582818	0.5044173571846257	-0.5303482339045639	1.03130923976558	0.2319493229674953	-0.6449471304110936	1.031079630998659	0.2315629925436704	-0.5435417354396745	1.242336691364232	0.8765162669600568	-0.5594817869673865	1.382439737384301	0.5007448198566882	-0.5842633729668407	1.174057165688663	1.144441227755248	-0.6881823937048964	1.013252911787072	0.2342511261922044	-0.5875136216682844	1.257535872788347	1.430714500389089	-0.6681014528288542	
55	2.99	1.324017961566902	1.419101941582382	-0.4540613140361803	1.208336510296689	1.496941841924891	-0.4783711993194363	1.251822320837388	1.439768006506781	-0.2893348892025405	1.313659744056821	1.400739116439392	-0.2733848776827574	1.21862559835155	1.415767568498397	-0.2710259976986491	1.196240966649278	1.124612448660123	-0.2441294450413074	1.176726894961656	1.126044460356735	-0.3051414562260541	1.24520320263883	1.343746892994066	-0.2509971148991348	1.272351964433512	1.257420434542926	-0.2731872772715002	1.193959298293125	1.233600430553252	-0.2549215818946281	1.26453819655138	1.070545221756553	-0.2912260439168317	1.349906748054016	0.8953252236767151	-0.2607935841317177	1.282073802880054	0.8784134949507933	-0.2625058491870432	1.314730157804427	0.9927180660641945	-0.3667609538438624	1.145292209277911	1.014457692404495	-0.4412617301228476	1.173410337204898	0.05244316297504354	-0.4355924857180953	1.382856116355337	0.0492095911789886	-0.4624522179446269	1.374135117071221	0.01508727128581026	-0.3575449978522797	1.268675276078296	0.8251770442296684	-0.3090533509142724	1.355269208594204	0.6926319791423127	-0.3420027792251893	1.305981136853034	0.5931120179623923	-0.3532091011796228	1.361633993412985	0.3613109346351965	-0.4173713088448445	1.305943541877792	0.311701410925974	-0.3537734257770391	1.315394282273734	0.1870120163357351	-0.4186030825523752	1.327977021013457	0.4988433724667474	-0.3627572888023222	1.319924966795226	0.5008844393318148	-0.4757124629775631	1.260565239405332	0.05985603311516818	-0.3717226036939023	1.257163498366726	0.06241239693764505	-0.4730396766017056	1.246857954818621	0.8843354529874878	-0.4067919800584616	1.327375521610733	0.4983226064960717	-0.4218186528662194	1.19178224386964	1.119108776764162	-0.2753357037972704	1.24392654580856	0.05075768706012795	-0.4289092383135277	1.269140998501187	1.407779194806433	-0.2722798603542019	1.240230598902305	1.468968263989096	-0.6599974010784537	1.307572264456512	1.424366893935174	-0.6691690426083104	1.204935387094819	1.4405976221589	-0.6666214522254734	1.187042311216355	1.1546070589665	-0.7181940812387175	1.162780606221446	1.158008952806992	-0.6579377707867305	1.223848980871274	1.375374506228993	-0.7073424488052747	1.170376121613915	1.311431290459982	-0.6818390060060686	1.239902952123009	1.261916729801423	-0.7086164156761995	1.230729156356908	1.093832370540026	-0.6676793904863138	1.298220131984506	0.902711959149518	-0.6961078778880178	1.233798017894694	0.8938728014714127	-0.7193276747984715	1.314829674258824	0.9850213214711079	-0.6020197067129147	1.144860323931743	1.013490045605801	-0.538755152079308	0.9934139999555688	0.288970957507734	-0.5821626017675551	1.108736284089719	0.1175650724768203	-0.5520456984196497	1.076643705470919	0.1056015105522931	-0.6594418452166648	1.268650850979095	0.8223692325650602	-0.6695813864121497	1.369634191852645	0.7479604441147277	-0.6609430662668909	1.333821298041007	0.607563617533536	-0.654616181332468	1.321511027446262	0.3852150563238033	-0.6090634476632393	1.220130019962065	0.3578891082522744	-0.6564034605732525	1.160610894587737	0.2771035154663162	-0.5934713222896244	1.386932511397674	0.5160184469959244	-0.6436988623252385	1.387310608212815	0.5075402457288275	-0.5307570629323078	1.047583016533452	0.2287931923981604	-0.6445917687295271	1.047640054836386	0.2283403033753378	-0.5431864052675447	1.248171786506906	0.8776066168300145	-0.5593012454016766	1.393832822664286	0.5040191579217421	-0.584692657054948	1.178204791769994	1.145514670836063	-0.6878279018389661	1.029645433542373	0.2307242995140032	-0.5871074130628905	1.263053518900877	1.431406972302215	-0.6680640252797549	
56	2.995	1.329928033246043	1.41990203628317	-0.4541299170620101	1.214275454416373	1.497827710322391	-0.4783019900260693	1.258047523501155	1.440782819128113	-0.2892927942866027	1.319877215786878	1.401710724092541	-0.2734187721379181	1.224861456585998	1.416829685897856	-0.2709028163732511	1.203916363707841	1.125335203244414	-0.2433157126050263	1.184180275238535	1.126562160223455	-0.3042607415133782	1.251809848879264	1.344687031586774	-0.2507561169567551	1.27929087113021	1.258449998723656	-0.2728849122430161	1.201077554085591	1.23429106516938	-0.2542983232965502	1.272913849960287	1.072367878358624	-0.2904462951326263	1.361061658487011	0.8985055834290757	-0.2601504509440953	1.29350123167934	0.8805294024877531	-0.2617913407706066	1.320199990568147	0.9934929558230429	-0.3663076905063873	1.15080492486721	1.015145050052501	-0.4409313727534842	1.173528499246715	0.05265887235988184	-0.4355208343693392	1.382984707558768	0.04926239324037984	-0.4622789422042326	1.374186462629924	0.01515015423306344	-0.357374893631311	1.273843035397212	0.82570736645126	-0.3089267754050812	1.358900724671711	0.6922033330165023	-0.3420059350910667	1.30848878571571	0.5932376276091491	-0.3531209656750767	1.362552459314872	0.3611663511708783	-0.4172740044079596	1.306726104703656	0.3117061622693494	-0.3536789589232388	1.315860344640764	0.186988029857474	-0.418498702237949	1.329417513211711	0.4987290567026723	-0.3626960751300201	1.321202102997011	0.5008505226505364	-0.4756380041080408	1.260695890985936	0.05997821643100587	-0.3716154679746033	1.257312338638966	0.06253619796151955	-0.4729331091073132	1.252524556166525	0.8850971882245857	-0.4066351372463987	1.328650465028305	0.4982662220987593	-0.4217349639610445	1.199373686800761	1.119752995710223	-0.2744959025382397	1.24404013504509	0.050919047100419	-0.4288033552387943	1.275367083389226	1.408793201750241	-0.2722401726599598	1.245817361947744	1.469661772674197	-0.6599599629906514	1.313101000535424	1.424989576188224	-0.6692124209437886	1.210483980598473	1.441318054937964	-0.6664951887179483	1.191069998090436	1.155644621876914	-0.7179067378522848	1.167092236607257	1.159140506113863	-0.6575422457405652	1.228951850895697	1.37623496730819	-0.7071540935772515	1.175295683119569	1.312533316703645	-0.681432070241432	1.244471645330005	1.262704109123994	-0.7085325844567917	1.234183604208866	1.094160502535023	-0.6675976922458353	1.299085116862248	0.9022367175512048	-0.6966369200244581	1.234487435719931	0.8942933638425965	-0.7196920969640803	1.320544589503674	0.9862934239136285	-0.6015819529623914	1.150471388991704	1.014382761813007	-0.5384270027094948	1.008488500929493	0.2840992169190997	-0.5815080498967566	1.128529277383293	0.1158435803096195	-0.552071894476544	1.096379305183507	0.1031669247857174	-0.659369026103877	1.274930811877561	0.8237853894814213	-0.669517078524578	1.377008598828459	0.7508459109508033	-0.6612175971883502	1.343254311854134	0.6099431759615479	-0.6548200090796287	1.334962540563962	0.3871037888216471	-0.6093507885876661	1.234010291432613	0.3578033430599421	-0.6564254124558027	1.176274029381408	0.2758259346004093	-0.5933736808168791	1.397720753866812	0.5191746832825159	-0.644096459362319	1.398576392088567	0.5106745276927626	-0.5311589184725711	1.064081391985488	0.2253169389047413	-0.6442081380735607	1.064428822917836	0.2248146642473599	-0.5428035863384066	1.253999780787794	0.8786924872091735	-0.5591568829828228	1.404989981753982	0.5073017152601897	-0.5851142868768729	1.182325192470526	1.146583944544871	-0.6875042605819736	1.046268771548082	0.2268645070111555	-0.5866733417258547	1.268590868137772	1.432072053845924	-0.6680338214658303	
57	3	1.335843082998664	1.420671508163303	-0.4542029463916253	1.220225281398817	1.498688573248178	-0.4782462465927284	1.264268742336484	1.441773877108194	-0.2892608486664985	1.326087492889513	1.402655624112827	-0.2734580514316496	1.231091107504394	1.417870209695419	-0.2707914646035389	1.211549866956459	1.126051620270008	-0.2425153140536155	1.191597980318022	1.127074054030011	-0.3033938160794529	1.258400742820081	1.345608456022493	-0.250525397766451	1.286204376960328	1.259458515427881	-0.2725903397775448	1.20816845813055	1.234972595228748	-0.2536886624270833	1.281236324645658	1.074202187572226	-0.2896751639827773	1.372142446517872	0.9017398270234254	-0.2595291340382096	1.304872093288125	0.8827018503805489	-0.2611108713055908	1.325663320445933	0.9942237782425534	-0.3658720131682268	1.156309314220306	1.015798393661653	-0.440611239584546	1.173645622273355	0.05287845523322095	-0.4354544567352024	1.383110790771203	0.0493063547593063	-0.4621193942027435	1.374237665131476	0.01520794012928581	-0.3572171581350079	1.279005348212362	0.8262071943011167	-0.3088342612888255	1.362502085952743	0.6917531546469406	-0.3420423064132314	1.310963450738662	0.593358266353883	-0.353057449582007	1.363435863568766	0.361032917034269	-0.4171935508441496	1.307479784656665	0.3117180161619713	-0.3535996851785518	1.316310422349618	0.18697125311239	-0.4184064052121034	1.330813563505002	0.4986196664190769	-0.3626561492864932	1.32242779057017	0.5008205202897769	-0.4755840375983061	1.260824968496728	0.06010370181823627	-0.3715167885788039	1.257458581450018	0.06266028414832164	-0.4728350368154023	1.258186389247495	0.8858215785053409	-0.4065135764187998	1.32987574774589	0.498216326123307	-0.4216713719490115	1.206925459156354	1.120390548556274	-0.2736692595221827	1.244152800828096	0.0510804839015726	-0.4287055774129848	1.281586436155854	1.409782896728992	-0.2722088888320212	1.251424816312888	1.470325271533634	-0.6599326336802471	1.318648483510846	1.425578547897327	-0.6692605718730003	1.216052387294917	1.442010300326526	-0.6663806580986408	1.195073380992453	1.156676147132394	-0.7176484208990332	1.171384564367978	1.160261247620196	-0.6571751773803286	1.234064507890869	1.377077012842326	-0.7069757902083835	1.180218635517391	1.313623131290248	-0.6810386728094501	1.249031331205706	1.263473406954519	-0.7084707636457319	1.237614525335999	1.094505944375467	-0.6675347564826745	1.299991916125013	0.901838741530717	-0.6971764906344653	1.2352386606581	0.8947706770660705	-0.7200796963485584	1.326247355796045	0.9875637967740744	-0.6011616944802366	1.156071737937312	1.015258983874622	-0.5381086384454956	1.023779694415198	0.278849690456127	-0.580835662407443	1.148580474737008	0.1139765653444463	-0.5520632388843731	1.116407684234181	0.1005435808082636	-0.6592614629409489	1.281157345740866	0.8251622136312441	-0.6694795712368067	1.384269837046133	0.7536547207423512	-0.6615161482838233	1.352506876719136	0.6122942824453278	-0.6550197965426234	1.348341775033771	0.3889491024638881	-0.6096172045983407	1.247894435460474	0.3575625169789677	-0.6564264682443706	1.192059352684462	0.2743713071424865	-0.5932524351817925	1.408269675088396	0.5222947338120164	-0.6444794620549031	1.409609718605842	0.5138040321368307	-0.5315459188869215	1.080807160718098	0.2215472423825778	-0.6438000022996996	1.081445403316684	0.2210129329056748	-0.5423970276862298	1.259819383160356	0.8797684948332749	-0.5590480738749686	1.415907537437408	0.5105755484977825	-0.5855201626449437	1.186421945631857	1.147644500989235	-0.6872106128740885	1.063125231232838	0.2226996623749877	-0.5862156424221906	1.274147426777187	1.432705820513492	-0.6680114092733719	
